<?xml version="1.0" encoding="UTF-8" standalone="no"?>
<!-- Created with Inkscape (http://www.inkscape.org/) -->

<svg
   xmlns:dc="http://purl.org/dc/elements/1.1/"
   xmlns:cc="http://creativecommons.org/ns#"
   xmlns:rdf="http://www.w3.org/1999/02/22-rdf-syntax-ns#"
   xmlns:svg="http://www.w3.org/2000/svg"
   xmlns="http://www.w3.org/2000/svg"
   xmlns:sodipodi="http://sodipodi.sourceforge.net/DTD/sodipodi-0.dtd"
   xmlns:inkscape="http://www.inkscape.org/namespaces/inkscape"
   width="19.638514mm"
   height="19.829002mm"
   viewBox="0 0 19.638514 19.829002"
   version="1.1"
   id="svg946"
   inkscape:version="0.92.4 (f8dce91, 2019-08-02)"
   sodipodi:docname="veox_white.svg">
  <defs
     id="defs940" />
  <sodipodi:namedview
     id="base"
     pagecolor="#ffffff"
     bordercolor="#666666"
     borderopacity="1.0"
     inkscape:pageopacity="0.0"
     inkscape:pageshadow="2"
     inkscape:zoom="0.35"
     inkscape:cx="-438.60213"
     inkscape:cy="126.04355"
     inkscape:document-units="mm"
     inkscape:current-layer="layer1"
     showgrid="false"
     fit-margin-top="0"
     fit-margin-left="0"
     fit-margin-right="0"
     fit-margin-bottom="0"
     inkscape:window-width="1865"
     inkscape:window-height="1016"
     inkscape:window-x="0"
     inkscape:window-y="27"
     inkscape:window-maximized="1" />
  <metadata
     id="metadata943">
    <rdf:RDF>
      <cc:Work
         rdf:about="">
        <dc:format>image/svg+xml</dc:format>
        <dc:type
           rdf:resource="http://purl.org/dc/dcmitype/StillImage" />
        <dc:title></dc:title>
      </cc:Work>
    </rdf:RDF>
  </metadata>
  <g
     inkscape:label="Capa 1"
     inkscape:groupmode="layer"
     id="layer1"
     transform="translate(-24.954553,-162.35335)">
    <path
       class="cls-11"
       d="m 39.647434,172.26918 a 4.873625,4.873625 0 1 0 -4.873624,4.87098 4.873625,4.873625 0 0 0 4.873624,-4.87098 m -8.683624,0 a 3.81,3.81 0 1 1 3.81,3.80735 3.81,3.81 0 0 1 -3.81,-3.80735"
       id="path125"
       inkscape:connector-curvature="0"
       style="fill:#f8f8f9;stroke-width:0.26458332"
       inkscape:export-xdpi="96"
       inkscape:export-ydpi="96" />
    <path
       class="cls-11"
       d="m 44.015705,173.01795 v 0 a 0.5715,0.5715 0 0 0 -0.568854,0.48948 8.7603542,8.7603542 0 0 1 -17.346083,0 0.5715,0.5715 0 0 0 -0.568854,-0.48948 0.5794375,0.5794375 0 0 0 -0.5715,0.65881 9.9139375,9.9139375 0 0 0 19.626791,0 0.57679167,0.57679167 0 0 0 -0.5715,-0.65881"
       id="path127"
       inkscape:connector-curvature="0"
       style="fill:#f8f8f9;stroke-width:0.26458332"
       inkscape:export-xdpi="96"
       inkscape:export-ydpi="96" />
    <path
       class="cls-11"
       d="m 25.531914,171.51776 a 0.5715,0.5715 0 0 0 0.568854,-0.48683 8.7603542,8.7603542 0 0 1 17.346083,0 0.57679167,0.57679167 0 0 0 1.140354,-0.17198 9.9139375,9.9139375 0 0 0 -19.626791,0 0.57679167,0.57679167 0 0 0 0.5715,0.65881"
       id="path129"
       inkscape:connector-curvature="0"
       style="fill:#f8f8f9;stroke-width:0.26458332"
       inkscape:export-xdpi="96"
       inkscape:export-ydpi="96" />
    <path
       class="cls-11"
       d="m 35.525226,165.55935 a 0.52916667,0.52916667 0 0 0 0.420688,0.52916 6.302375,6.302375 0 0 1 0,12.3878 0.52916667,0.52916667 0 0 0 0.195791,1.02922 7.3527708,7.3527708 0 0 0 0,-14.44889 0.52916667,0.52916667 0 0 0 -0.616479,0.51594"
       id="path131"
       inkscape:connector-curvature="0"
       style="fill:#f8f8f9;stroke-width:0.26458332"
       inkscape:export-xdpi="96"
       inkscape:export-ydpi="96" />
    <path
       class="cls-11"
       d="m 34.025039,178.97637 a 0.52916667,0.52916667 0 0 0 -0.423334,-0.51329 6.302375,6.302375 0 0 1 0,-12.3878 0.52916667,0.52916667 0 0 0 -0.195791,-1.03187 7.3527708,7.3527708 0 0 0 0,14.4489 0.52916667,0.52916667 0 0 0 0.619125,-0.51594"
       id="path133"
       inkscape:connector-curvature="0"
       style="fill:#f8f8f9;stroke-width:0.26458332"
       inkscape:export-xdpi="96"
       inkscape:export-ydpi="96" />
    <path
       class="cls-11"
       d="m 35.083372,169.91174 a 2.38125,2.38125 0 1 0 2.047875,2.04788 2.38125,2.38125 0 0 0 -2.047875,-2.04788 m -0.08731,4.04284 a 1.7012708,1.7012708 0 1 1 1.463146,-1.46315 1.7039167,1.7039167 0 0 1 -1.463146,1.46315"
       id="path135"
       inkscape:connector-curvature="0"
       style="fill:#f8f8f9;stroke-width:0.26458332"
       inkscape:export-xdpi="96"
       inkscape:export-ydpi="96" />
    <path
       class="cls-11"
       d="m 35.787164,171.59449 a 0.47625,0.47625 0 1 1 -0.47625,-0.47625 0.47625,0.47625 0 0 1 0.47625,0.47625"
       id="path137"
       inkscape:connector-curvature="0"
       style="fill:#f8f8f9;stroke-width:0.26458332"
       inkscape:export-xdpi="96"
       inkscape:export-ydpi="96" />
  </g>
</svg>
